<svg xmlns="http://www.w3.org/2000/svg" xmlns:xlink="http://www.w3.org/1999/xlink" width="623.596" height="717.596" viewBox="0 0 623.596 717.596">
  <defs>
    <clipPath id="clip-path">
      <circle id="Ellipse_4" data-name="Ellipse 4" cx="260.5" cy="260.5" r="260.5" transform="translate(1293 513)" fill="#fff" stroke="#7f5af0" stroke-width="1"/>
    </clipPath>
    <clipPath id="clip-path-2">
      <circle id="Ellipse_5" data-name="Ellipse 5" cx="153.5" cy="153.5" r="153.5" transform="translate(1293 513.265)" fill="#fff" stroke="#2cb67d" stroke-width="1"/>
    </clipPath>
  </defs>
  <g id="bg-bottom" transform="translate(-1258.404 -5360.404)">
    <g id="Group_2" data-name="Group 2">
      <g id="Mask_Group_4" data-name="Mask Group 4" transform="translate(68 5044)" opacity="0.64" clip-path="url(#clip-path)">
        <path id="Path_94" data-name="Path 94" d="M3815.6,1010.69s319.964,48.676,654.348-86.208S4978.389,531.62,4978.389,531.62" transform="translate(-2948.692 -417.547)" fill="none" stroke="#7f5af0" stroke-width="1"/>
        <path id="Path_95" data-name="Path 95" d="M3815.6,1010.69s267.852,64.321,602.235-70.563S4978.389,531.62,4978.389,531.62" transform="translate(-2948.692 -394.108)" fill="none" stroke="#7f5af0" stroke-width="1"/>
        <path id="Path_96" data-name="Path 96" d="M3815.6,1010.69s295.536,55.539,629.92-79.345S4978.389,531.62,4978.389,531.62" transform="translate(-2948.692 -370.67)" fill="none" stroke="#7f5af0" stroke-width="1"/>
        <path id="Path_97" data-name="Path 97" d="M3815.6,1010.69s243.425,82.584,577.808-52.3,584.983-426.77,584.983-426.77" transform="translate(-2948.692 -347.231)" fill="none" stroke="#7f5af0" stroke-width="1"/>
        <path id="Path_98" data-name="Path 98" d="M3815.6,1010.69s346.02,42.86,680.4-92.024S4978.389,531.62,4978.389,531.62" transform="translate(-2948.692 -323.792)" fill="none" stroke="#7f5af0" stroke-width="1"/>
        <path id="Path_99" data-name="Path 99" d="M3815.6,1010.69s298.793,69.9,633.177-64.979S4978.389,531.62,4978.389,531.62" transform="translate(-2948.692 -300.353)" fill="none" stroke="#7f5af0" stroke-width="1"/>
        <path id="Path_100" data-name="Path 100" d="M3815.6,1010.69s294.025,65.116,628.408-69.768,534.384-409.3,534.384-409.3" transform="translate(-2948.692 -276.915)" fill="none" stroke="#7f5af0" stroke-width="1"/>
        <path id="Path_101" data-name="Path 101" d="M3815.6,1010.69s294.025,65.116,628.408-69.768c114.359-46.13,227.459-121.623,307.67-183.768,154.58-119.763,226.713-225.535,226.713-225.535" transform="translate(-2948.692 -253.476)" fill="none" stroke="#7f5af0" stroke-width="1"/>
        <path id="Path_102" data-name="Path 102" d="M3815.6,1010.69s292.28,72.871,626.663-62.012c41.129-16.591,143.249-62.153,276.845-164.479S4978.389,531.62,4978.389,531.62" transform="translate(-2948.692 -230.037)" fill="none" stroke="#7f5af0" stroke-width="1"/>
        <path id="Path_103" data-name="Path 103" d="M3815.6,1010.69s256.453,80.374,590.836-54.51S4978.389,531.62,4978.389,531.62" transform="translate(-2948.692 -206.599)" fill="none" stroke="#7f5af0" stroke-width="1"/>
        <path id="Path_104" data-name="Path 104" d="M3815.6,1010.69s321.593,53.679,655.976-81.205S4978.389,531.62,4978.389,531.62" transform="translate(-2948.692 -183.16)" fill="none" stroke="#7f5af0" stroke-width="1"/>
        <path id="Path_105" data-name="Path 105" d="M3815.6,1010.69s277.624,75.838,612.007-59.046S4978.389,531.62,4978.389,531.62" transform="translate(-2948.692 -159.721)" fill="none" stroke="#7f5af0" stroke-width="1"/>
        <path id="Path_106" data-name="Path 106" d="M3815.6,1010.69s326.478,54.028,660.862-80.856,501.93-398.214,501.93-398.214" transform="translate(-2948.692 -136.282)" fill="none" stroke="#7f5af0" stroke-width="1"/>
        <path id="Path_107" data-name="Path 107" d="M3815.6,1010.69s359.048,37.1,693.431-97.781,469.36-381.289,469.36-381.289" transform="translate(-2948.692 -112.844)" fill="none" stroke="#7f5af0" stroke-width="1"/>
        <path id="Path_108" data-name="Path 108" d="M3815.6,1010.69s347.648,46.234,682.032-88.65,480.76-390.421,480.76-390.421" transform="translate(-2948.692 -89.405)" fill="none" stroke="#7f5af0" stroke-width="1"/>
        <path id="Path_109" data-name="Path 109" d="M3815.6,1010.69s352.534,48.852,686.918-86.032S4978.389,531.62,4978.389,531.62" transform="translate(-2948.692 -65.966)" fill="none" stroke="#7f5af0" stroke-width="1"/>
        <path id="Path_110" data-name="Path 110" d="M3815.6,1010.69s375.333,33.555,709.717-101.328S4978.389,531.62,4978.389,531.62" transform="translate(-2948.692 -42.528)" fill="none" stroke="#7f5af0" stroke-width="1"/>
        <path id="Path_111" data-name="Path 111" d="M3815.6,1010.69s367.19,41.058,701.574-93.826S4978.389,531.62,4978.389,531.62" transform="translate(-2948.692 -19.089)" fill="none" stroke="#7f5af0" stroke-width="1"/>
        <path id="Path_112" data-name="Path 112" d="M3815.6,1010.69s264.6,79.5,598.978-55.381S4978.389,531.62,4978.389,531.62" transform="translate(-2948.692 4.35)" fill="none" stroke="#7f5af0" stroke-width="1"/>
        <path id="Path_113" data-name="Path 113" d="M3815.6,1010.69s357.42,41.407,691.8-93.477S4978.389,531.62,4978.389,531.62" transform="translate(-2948.692 27.789)" fill="none" stroke="#7f5af0" stroke-width="1"/>
        <path id="Path_114" data-name="Path 114" d="M3815.6,1010.69s306.936,55.424,641.32-79.46S4978.389,531.62,4978.389,531.62" transform="translate(-2948.692 51.227)" fill="none" stroke="#7f5af0" stroke-width="1"/>
        <path id="Path_115" data-name="Path 115" d="M3815.6,1010.69s272.738,74.326,607.121-60.557c2.675-1.079,84.089-41.424,86.311-42.341,330.007-136.173,469.36-376.172,469.36-376.172" transform="translate(-2948.692 74.666)" fill="none" stroke="#7f5af0" stroke-width="1"/>
        <path id="Path_116" data-name="Path 116" d="M3815.6,1010.69s355.791,29.717,690.175-105.167,472.617-373.9,472.617-373.9" transform="translate(-2948.692 98.105)" fill="none" stroke="#7f5af0" stroke-width="1"/>
        <path id="Path_117" data-name="Path 117" d="M3815.6,1010.69s367.19,24.192,701.574-110.692S4978.389,531.62,4978.389,531.62" transform="translate(-2948.692 121.543)" fill="none" stroke="#7f5af0" stroke-width="1"/>
        <path id="Path_118" data-name="Path 118" d="M3815.6,1010.69s254.606,69.911,585.951-60.848c2.376-.938,160.172-75.459,162.85-76.54,334.384-134.884,413.991-341.683,413.991-341.683" transform="translate(-2948.692 144.982)" fill="none" stroke="#7f5af0" stroke-width="1"/>
        <path id="Path_119" data-name="Path 119" d="M3815.6,1010.69s294.025,65.116,628.408-69.768,534.384-409.3,534.384-409.3" transform="translate(-2948.692 168.421)" fill="none" stroke="#7f5af0" stroke-width="1"/>
        <path id="Path_120" data-name="Path 120" d="M3815.6,1010.69s294.025,65.116,628.408-69.768,534.384-409.3,534.384-409.3" transform="translate(-2948.692 191.86)" fill="none" stroke="#7f5af0" stroke-width="1"/>
        <path id="Path_121" data-name="Path 121" d="M3815.6,1010.69s294.025,65.116,628.408-69.768,534.384-409.3,534.384-409.3" transform="translate(-2948.692 215.298)" fill="none" stroke="#7f5af0" stroke-width="1"/>
        <path id="Path_122" data-name="Path 122" d="M3815.6,1010.69s294.025,65.116,628.408-69.768,534.384-409.3,534.384-409.3" transform="translate(-2948.692 238.737)" fill="none" stroke="#7f5af0" stroke-width="1"/>
        <path id="Path_123" data-name="Path 123" d="M3815.6,1010.69s294.025,65.116,628.408-69.768,534.384-409.3,534.384-409.3" transform="translate(-2948.692 262.176)" fill="none" stroke="#7f5af0" stroke-width="1"/>
        <path id="Path_124" data-name="Path 124" d="M3815.6,1010.69s294.025,65.116,628.408-69.768,534.384-409.3,534.384-409.3" transform="translate(-2948.692 285.614)" fill="none" stroke="#7f5af0" stroke-width="1"/>
        <path id="Path_125" data-name="Path 125" d="M3815.6,1010.69s294.025,65.116,628.408-69.768,534.384-409.3,534.384-409.3" transform="translate(-2948.692 309.053)" fill="none" stroke="#7f5af0" stroke-width="1"/>
        <path id="Path_126" data-name="Path 126" d="M3815.6,1010.69s294.025,65.116,628.408-69.768,534.384-409.3,534.384-409.3" transform="translate(-2948.692 332.492)" fill="none" stroke="#7f5af0" stroke-width="1"/>
        <path id="Path_127" data-name="Path 127" d="M3815.6,1010.69s294.025,65.116,628.408-69.768,534.384-409.3,534.384-409.3" transform="translate(-2948.692 355.931)" fill="none" stroke="#7f5af0" stroke-width="1"/>
        <path id="Path_128" data-name="Path 128" d="M3815.6,1010.69s294.025,65.116,628.408-69.768,534.384-409.3,534.384-409.3" transform="translate(-2948.692 379.369)" fill="none" stroke="#7f5af0" stroke-width="1"/>
        <path id="Path_129" data-name="Path 129" d="M3815.6,1010.69s294.025,65.116,628.408-69.768,534.384-409.3,534.384-409.3" transform="translate(-2948.692 402.808)" fill="none" stroke="#7f5af0" stroke-width="1"/>
        <path id="Path_130" data-name="Path 130" d="M3815.6,1010.69s294.025,65.116,628.408-69.768,534.384-409.3,534.384-409.3" transform="translate(-2948.692 426.247)" fill="none" stroke="#7f5af0" stroke-width="1"/>
        <path id="Path_131" data-name="Path 131" d="M3815.6,1010.69s294.025,65.116,628.408-69.768,534.384-409.3,534.384-409.3" transform="translate(-2948.692 449.685)" fill="none" stroke="#7f5af0" stroke-width="1"/>
        <path id="Path_132" data-name="Path 132" d="M3815.6,1010.69s294.025,65.116,628.408-69.768,534.384-409.3,534.384-409.3" transform="translate(-2948.692 473.124)" fill="none" stroke="#7f5af0" stroke-width="1"/>
        <path id="Path_133" data-name="Path 133" d="M3815.6,1010.69s294.025,65.116,628.408-69.768,534.384-409.3,534.384-409.3" transform="translate(-2948.692 496.563)" fill="none" stroke="#7f5af0" stroke-width="1"/>
        <path id="Path_134" data-name="Path 134" d="M3815.6,1010.69s294.025,65.116,628.408-69.768,534.384-409.3,534.384-409.3" transform="translate(-2948.692 520.002)" fill="none" stroke="#7f5af0" stroke-width="1"/>
        <path id="Path_135" data-name="Path 135" d="M3815.6,1010.69s294.025,65.116,628.408-69.768,534.384-409.3,534.384-409.3" transform="translate(-2948.692 543.44)" fill="none" stroke="#7f5af0" stroke-width="1"/>
        <path id="Path_136" data-name="Path 136" d="M3815.6,1010.69s294.025,65.116,628.408-69.768,534.384-409.3,534.384-409.3" transform="translate(-2948.692 566.879)" fill="none" stroke="#7f5af0" stroke-width="1"/>
        <path id="Path_137" data-name="Path 137" d="M3815.6,1010.69s294.025,65.116,628.408-69.768,534.384-409.3,534.384-409.3" transform="translate(-2948.692 590.318)" fill="none" stroke="#7f5af0" stroke-width="1"/>
        <path id="Path_138" data-name="Path 138" d="M3815.6,1010.69s294.025,65.116,628.408-69.768,534.384-409.3,534.384-409.3" transform="translate(-2948.692 613.756)" fill="none" stroke="#7f5af0" stroke-width="1"/>
        <path id="Path_139" data-name="Path 139" d="M3815.6,1010.69s294.025,65.116,628.408-69.768,534.384-409.3,534.384-409.3" transform="translate(-2948.692 637.195)" fill="none" stroke="#7f5af0" stroke-width="1"/>
      </g>
      <g id="Mask_Group_5" data-name="Mask Group 5" transform="matrix(0.225, 0.974, -0.974, 0.225, 1766.784, 3985.084)" clip-path="url(#clip-path-2)">
        <path id="Path_140" data-name="Path 140" d="M3815.6,814.156s188.7,28.707,385.908-50.842,299.86-231.695,299.86-231.695" transform="translate(-2773.891 -253.891)" fill="none" stroke="#2cb67d" stroke-width="1"/>
        <path id="Path_141" data-name="Path 141" d="M3815.6,814.156s157.968,37.934,355.174-41.615S4501.365,531.62,4501.365,531.62" transform="translate(-2773.891 -240.068)" fill="none" stroke="#2cb67d" stroke-width="1"/>
        <path id="Path_142" data-name="Path 142" d="M3815.6,814.156s174.3,32.755,371.5-46.794S4501.365,531.62,4501.365,531.62" transform="translate(-2773.891 -226.245)" fill="none" stroke="#2cb67d" stroke-width="1"/>
        <path id="Path_143" data-name="Path 143" d="M3815.6,814.156s143.562,48.7,340.768-30.844,345-251.692,345-251.692" transform="translate(-2773.891 -212.421)" fill="none" stroke="#2cb67d" stroke-width="1"/>
        <path id="Path_144" data-name="Path 144" d="M3815.6,814.156s204.069,25.277,401.274-54.272S4501.365,531.62,4501.365,531.62" transform="translate(-2773.891 -198.598)" fill="none" stroke="#2cb67d" stroke-width="1"/>
        <path id="Path_145" data-name="Path 145" d="M3815.6,814.156s176.216,41.227,373.422-38.322S4501.365,531.62,4501.365,531.62" transform="translate(-2773.891 -184.775)" fill="none" stroke="#2cb67d" stroke-width="1"/>
        <path id="Path_146" data-name="Path 146" d="M3815.6,814.156s173.4,38.4,370.61-41.146,315.158-241.39,315.158-241.39" transform="translate(-2773.891 -170.952)" fill="none" stroke="#2cb67d" stroke-width="1"/>
        <path id="Path_147" data-name="Path 147" d="M3815.6,814.156s173.4,38.4,370.61-41.146c67.444-27.206,134.146-71.729,181.452-108.379C4458.824,594,4501.365,531.62,4501.365,531.62" transform="translate(-2773.891 -157.128)" fill="none" stroke="#2cb67d" stroke-width="1"/>
        <path id="Path_148" data-name="Path 148" d="M3815.6,814.156s172.375,42.977,369.581-36.572c24.256-9.784,84.482-36.655,163.272-97S4501.365,531.62,4501.365,531.62" transform="translate(-2773.891 -143.305)" fill="none" stroke="#2cb67d" stroke-width="1"/>
        <path id="Path_149" data-name="Path 149" d="M3815.6,814.156s151.245,47.4,348.451-32.148S4501.365,531.62,4501.365,531.62" transform="translate(-2773.891 -129.482)" fill="none" stroke="#2cb67d" stroke-width="1"/>
        <path id="Path_150" data-name="Path 150" d="M3815.6,814.156s189.662,31.657,386.868-47.892,298.9-234.645,298.9-234.645" transform="translate(-2773.891 -115.659)" fill="none" stroke="#2cb67d" stroke-width="1"/>
        <path id="Path_151" data-name="Path 151" d="M3815.6,814.156s163.731,44.726,360.937-34.823S4501.365,531.62,4501.365,531.62" transform="translate(-2773.891 -101.836)" fill="none" stroke="#2cb67d" stroke-width="1"/>
        <path id="Path_152" data-name="Path 152" d="M3815.6,814.156s192.543,31.863,389.75-47.686S4501.365,531.62,4501.365,531.62" transform="translate(-2773.891 -88.012)" fill="none" stroke="#2cb67d" stroke-width="1"/>
        <path id="Path_153" data-name="Path 153" d="M3815.6,814.156s211.752,21.882,408.958-57.667,276.81-224.869,276.81-224.869" transform="translate(-2773.891 -74.189)" fill="none" stroke="#2cb67d" stroke-width="1"/>
        <path id="Path_154" data-name="Path 154" d="M3815.6,814.156s205.029,27.267,402.235-52.282S4501.365,531.62,4501.365,531.62" transform="translate(-2773.891 -60.366)" fill="none" stroke="#2cb67d" stroke-width="1"/>
        <path id="Path_155" data-name="Path 155" d="M3815.6,814.156s207.91,28.811,405.117-50.738,280.651-231.8,280.651-231.8" transform="translate(-2773.891 -46.543)" fill="none" stroke="#2cb67d" stroke-width="1"/>
        <path id="Path_156" data-name="Path 156" d="M3815.6,814.156s221.356,19.79,418.563-59.759S4501.365,531.62,4501.365,531.62" transform="translate(-2773.891 -32.72)" fill="none" stroke="#2cb67d" stroke-width="1"/>
        <path id="Path_157" data-name="Path 157" d="M3815.6,814.156s216.554,24.214,413.76-55.335,272.008-227.2,272.008-227.2" transform="translate(-2773.891 -18.896)" fill="none" stroke="#2cb67d" stroke-width="1"/>
        <path id="Path_158" data-name="Path 158" d="M3815.6,814.156s156.048,46.887,353.253-32.662S4501.365,531.62,4501.365,531.62" transform="translate(-2773.891 -5.073)" fill="none" stroke="#2cb67d" stroke-width="1"/>
        <path id="Path_159" data-name="Path 159" d="M3815.6,814.156s210.792,24.42,408-55.129S4501.365,531.62,4501.365,531.62" transform="translate(-2773.891 8.75)" fill="none" stroke="#2cb67d" stroke-width="1"/>
        <path id="Path_160" data-name="Path 160" d="M3815.6,814.156s181.018,32.687,378.225-46.862S4501.365,531.62,4501.365,531.62" transform="translate(-2773.891 22.573)" fill="none" stroke="#2cb67d" stroke-width="1"/>
        <path id="Path_161" data-name="Path 161" d="M3815.6,814.156s160.849,43.835,358.055-35.714c1.578-.636,49.592-24.43,50.9-24.971,194.625-80.31,276.81-221.851,276.81-221.851" transform="translate(-2773.891 36.396)" fill="none" stroke="#2cb67d" stroke-width="1"/>
        <path id="Path_162" data-name="Path 162" d="M3815.6,814.156s209.831,17.526,407.037-62.023S4501.365,531.62,4501.365,531.62" transform="translate(-2773.891 50.22)" fill="none" stroke="#2cb67d" stroke-width="1"/>
        <path id="Path_163" data-name="Path 163" d="M3815.6,814.156s216.554,14.267,413.76-65.282S4501.365,531.62,4501.365,531.62" transform="translate(-2773.891 64.043)" fill="none" stroke="#2cb67d" stroke-width="1"/>
        <path id="Path_164" data-name="Path 164" d="M3815.6,814.156s150.156,41.231,345.57-35.886c1.4-.553,94.463-44.5,96.042-45.14,197.206-79.549,244.156-201.511,244.156-201.511" transform="translate(-2773.891 77.866)" fill="none" stroke="#2cb67d" stroke-width="1"/>
        <path id="Path_165" data-name="Path 165" d="M3815.6,814.156s173.4,38.4,370.61-41.146,315.158-241.39,315.158-241.39" transform="translate(-2773.891 91.689)" fill="none" stroke="#2cb67d" stroke-width="1"/>
        <path id="Path_166" data-name="Path 166" d="M3815.6,814.156s173.4,38.4,370.61-41.146,315.158-241.39,315.158-241.39" transform="translate(-2773.891 105.512)" fill="none" stroke="#2cb67d" stroke-width="1"/>
        <path id="Path_167" data-name="Path 167" d="M3815.6,814.156s173.4,38.4,370.61-41.146,315.158-241.39,315.158-241.39" transform="translate(-2773.891 119.336)" fill="none" stroke="#2cb67d" stroke-width="1"/>
        <path id="Path_168" data-name="Path 168" d="M3815.6,814.156s173.4,38.4,370.61-41.146,315.158-241.39,315.158-241.39" transform="translate(-2773.891 133.159)" fill="none" stroke="#2cb67d" stroke-width="1"/>
        <path id="Path_169" data-name="Path 169" d="M3815.6,814.156s173.4,38.4,370.61-41.146,315.158-241.39,315.158-241.39" transform="translate(-2773.891 146.982)" fill="none" stroke="#2cb67d" stroke-width="1"/>
        <path id="Path_170" data-name="Path 170" d="M3815.6,814.156s173.4,38.4,370.61-41.146,315.158-241.39,315.158-241.39" transform="translate(-2773.891 160.805)" fill="none" stroke="#2cb67d" stroke-width="1"/>
        <path id="Path_171" data-name="Path 171" d="M3815.6,814.156s173.4,38.4,370.61-41.146,315.158-241.39,315.158-241.39" transform="translate(-2773.891 174.628)" fill="none" stroke="#2cb67d" stroke-width="1"/>
        <path id="Path_172" data-name="Path 172" d="M3815.6,814.156s173.4,38.4,370.61-41.146,315.158-241.39,315.158-241.39" transform="translate(-2773.891 188.452)" fill="none" stroke="#2cb67d" stroke-width="1"/>
        <path id="Path_173" data-name="Path 173" d="M3815.6,814.156s173.4,38.4,370.61-41.146,315.158-241.39,315.158-241.39" transform="translate(-2773.891 202.275)" fill="none" stroke="#2cb67d" stroke-width="1"/>
        <path id="Path_174" data-name="Path 174" d="M3815.6,814.156s173.4,38.4,370.61-41.146,315.158-241.39,315.158-241.39" transform="translate(-2773.891 216.098)" fill="none" stroke="#2cb67d" stroke-width="1"/>
        <path id="Path_175" data-name="Path 175" d="M3815.6,814.156s173.4,38.4,370.61-41.146,315.158-241.39,315.158-241.39" transform="translate(-2773.891 229.921)" fill="none" stroke="#2cb67d" stroke-width="1"/>
        <path id="Path_176" data-name="Path 176" d="M3815.6,814.156s173.4,38.4,370.61-41.146,315.158-241.39,315.158-241.39" transform="translate(-2773.891 243.744)" fill="none" stroke="#2cb67d" stroke-width="1"/>
        <path id="Path_177" data-name="Path 177" d="M3815.6,814.156s173.4,38.4,370.61-41.146,315.158-241.39,315.158-241.39" transform="translate(-2773.891 257.568)" fill="none" stroke="#2cb67d" stroke-width="1"/>
        <path id="Path_178" data-name="Path 178" d="M3815.6,814.156s173.4,38.4,370.61-41.146,315.158-241.39,315.158-241.39" transform="translate(-2773.891 271.391)" fill="none" stroke="#2cb67d" stroke-width="1"/>
        <path id="Path_179" data-name="Path 179" d="M3815.6,814.156s173.4,38.4,370.61-41.146,315.158-241.39,315.158-241.39" transform="translate(-2773.891 285.214)" fill="none" stroke="#2cb67d" stroke-width="1"/>
        <path id="Path_180" data-name="Path 180" d="M3815.6,814.156s173.4,38.4,370.61-41.146,315.158-241.39,315.158-241.39" transform="translate(-2773.891 299.037)" fill="none" stroke="#2cb67d" stroke-width="1"/>
        <path id="Path_181" data-name="Path 181" d="M3815.6,814.156s173.4,38.4,370.61-41.146,315.158-241.39,315.158-241.39" transform="translate(-2773.891 312.861)" fill="none" stroke="#2cb67d" stroke-width="1"/>
        <path id="Path_182" data-name="Path 182" d="M3815.6,814.156s173.4,38.4,370.61-41.146,315.158-241.39,315.158-241.39" transform="translate(-2773.891 326.684)" fill="none" stroke="#2cb67d" stroke-width="1"/>
        <path id="Path_183" data-name="Path 183" d="M3815.6,814.156s173.4,38.4,370.61-41.146,315.158-241.39,315.158-241.39" transform="translate(-2773.891 340.507)" fill="none" stroke="#2cb67d" stroke-width="1"/>
        <path id="Path_184" data-name="Path 184" d="M3815.6,814.156s173.4,38.4,370.61-41.146,315.158-241.39,315.158-241.39" transform="translate(-2773.891 354.33)" fill="none" stroke="#2cb67d" stroke-width="1"/>
        <path id="Path_185" data-name="Path 185" d="M3815.6,814.156s173.4,38.4,370.61-41.146,315.158-241.39,315.158-241.39" transform="translate(-2773.891 368.153)" fill="none" stroke="#2cb67d" stroke-width="1"/>
      </g>
    </g>
  </g>
</svg>
