<svg xmlns="http://www.w3.org/2000/svg" xmlns:xlink="http://www.w3.org/1999/xlink" width="307" height="307" viewBox="0 0 307 307">
  <defs>
    <clipPath id="clip-path">
      <circle id="Ellipse_3" data-name="Ellipse 3" cx="153.5" cy="153.5" r="153.5" transform="translate(1293 513.265)" fill="#fff" stroke="#7f5af0" stroke-width="1"/>
    </clipPath>
  </defs>
  <g id="bg-md" transform="translate(-1293 -513.265)" clip-path="url(#clip-path)">
    <path id="Path_48" data-name="Path 48" d="M3815.6,814.156s188.7,28.707,385.908-50.842,299.86-231.695,299.86-231.695" transform="translate(-2773.891 -253.891)" fill="none" stroke="#7f5af0" stroke-width="1"/>
    <path id="Path_49" data-name="Path 49" d="M3815.6,814.156s157.968,37.934,355.174-41.615S4501.365,531.62,4501.365,531.62" transform="translate(-2773.891 -240.068)" fill="none" stroke="#7f5af0" stroke-width="1"/>
    <path id="Path_50" data-name="Path 50" d="M3815.6,814.156s174.3,32.755,371.5-46.794S4501.365,531.62,4501.365,531.62" transform="translate(-2773.891 -226.245)" fill="none" stroke="#7f5af0" stroke-width="1"/>
    <path id="Path_51" data-name="Path 51" d="M3815.6,814.156s143.562,48.7,340.768-30.844,345-251.692,345-251.692" transform="translate(-2773.891 -212.421)" fill="none" stroke="#7f5af0" stroke-width="1"/>
    <path id="Path_52" data-name="Path 52" d="M3815.6,814.156s204.069,25.277,401.274-54.272S4501.365,531.62,4501.365,531.62" transform="translate(-2773.891 -198.598)" fill="none" stroke="#7f5af0" stroke-width="1"/>
    <path id="Path_53" data-name="Path 53" d="M3815.6,814.156s176.216,41.227,373.422-38.322S4501.365,531.62,4501.365,531.62" transform="translate(-2773.891 -184.775)" fill="none" stroke="#7f5af0" stroke-width="1"/>
    <path id="Path_54" data-name="Path 54" d="M3815.6,814.156s173.4,38.4,370.61-41.146,315.158-241.39,315.158-241.39" transform="translate(-2773.891 -170.952)" fill="none" stroke="#7f5af0" stroke-width="1"/>
    <path id="Path_55" data-name="Path 55" d="M3815.6,814.156s173.4,38.4,370.61-41.146c67.444-27.206,134.146-71.729,181.452-108.379C4458.824,594,4501.365,531.62,4501.365,531.62" transform="translate(-2773.891 -157.128)" fill="none" stroke="#7f5af0" stroke-width="1"/>
    <path id="Path_56" data-name="Path 56" d="M3815.6,814.156s172.375,42.977,369.581-36.572c24.256-9.784,84.482-36.655,163.272-97S4501.365,531.62,4501.365,531.62" transform="translate(-2773.891 -143.305)" fill="none" stroke="#7f5af0" stroke-width="1"/>
    <path id="Path_57" data-name="Path 57" d="M3815.6,814.156s151.245,47.4,348.451-32.148S4501.365,531.62,4501.365,531.62" transform="translate(-2773.891 -129.482)" fill="none" stroke="#7f5af0" stroke-width="1"/>
    <path id="Path_58" data-name="Path 58" d="M3815.6,814.156s189.662,31.657,386.868-47.892,298.9-234.645,298.9-234.645" transform="translate(-2773.891 -115.659)" fill="none" stroke="#7f5af0" stroke-width="1"/>
    <path id="Path_59" data-name="Path 59" d="M3815.6,814.156s163.731,44.726,360.937-34.823S4501.365,531.62,4501.365,531.62" transform="translate(-2773.891 -101.836)" fill="none" stroke="#7f5af0" stroke-width="1"/>
    <path id="Path_60" data-name="Path 60" d="M3815.6,814.156s192.543,31.863,389.75-47.686S4501.365,531.62,4501.365,531.62" transform="translate(-2773.891 -88.012)" fill="none" stroke="#7f5af0" stroke-width="1"/>
    <path id="Path_61" data-name="Path 61" d="M3815.6,814.156s211.752,21.882,408.958-57.667,276.81-224.869,276.81-224.869" transform="translate(-2773.891 -74.189)" fill="none" stroke="#7f5af0" stroke-width="1"/>
    <path id="Path_62" data-name="Path 62" d="M3815.6,814.156s205.029,27.267,402.235-52.282S4501.365,531.62,4501.365,531.62" transform="translate(-2773.891 -60.366)" fill="none" stroke="#7f5af0" stroke-width="1"/>
    <path id="Path_63" data-name="Path 63" d="M3815.6,814.156s207.91,28.811,405.117-50.738,280.651-231.8,280.651-231.8" transform="translate(-2773.891 -46.543)" fill="none" stroke="#7f5af0" stroke-width="1"/>
    <path id="Path_64" data-name="Path 64" d="M3815.6,814.156s221.356,19.79,418.563-59.759S4501.365,531.62,4501.365,531.62" transform="translate(-2773.891 -32.72)" fill="none" stroke="#7f5af0" stroke-width="1"/>
    <path id="Path_65" data-name="Path 65" d="M3815.6,814.156s216.554,24.214,413.76-55.335,272.008-227.2,272.008-227.2" transform="translate(-2773.891 -18.896)" fill="none" stroke="#7f5af0" stroke-width="1"/>
    <path id="Path_66" data-name="Path 66" d="M3815.6,814.156s156.048,46.887,353.253-32.662S4501.365,531.62,4501.365,531.62" transform="translate(-2773.891 -5.073)" fill="none" stroke="#7f5af0" stroke-width="1"/>
    <path id="Path_67" data-name="Path 67" d="M3815.6,814.156s210.792,24.42,408-55.129S4501.365,531.62,4501.365,531.62" transform="translate(-2773.891 8.75)" fill="none" stroke="#7f5af0" stroke-width="1"/>
    <path id="Path_68" data-name="Path 68" d="M3815.6,814.156s181.018,32.687,378.225-46.862S4501.365,531.62,4501.365,531.62" transform="translate(-2773.891 22.573)" fill="none" stroke="#7f5af0" stroke-width="1"/>
    <path id="Path_69" data-name="Path 69" d="M3815.6,814.156s160.849,43.835,358.055-35.714c1.578-.636,49.592-24.43,50.9-24.971,194.625-80.31,276.81-221.851,276.81-221.851" transform="translate(-2773.891 36.396)" fill="none" stroke="#7f5af0" stroke-width="1"/>
    <path id="Path_70" data-name="Path 70" d="M3815.6,814.156s209.831,17.526,407.037-62.023S4501.365,531.62,4501.365,531.62" transform="translate(-2773.891 50.22)" fill="none" stroke="#7f5af0" stroke-width="1"/>
    <path id="Path_71" data-name="Path 71" d="M3815.6,814.156s216.554,14.267,413.76-65.282S4501.365,531.62,4501.365,531.62" transform="translate(-2773.891 64.043)" fill="none" stroke="#7f5af0" stroke-width="1"/>
    <path id="Path_72" data-name="Path 72" d="M3815.6,814.156s150.156,41.231,345.57-35.886c1.4-.553,94.463-44.5,96.042-45.14,197.206-79.549,244.156-201.511,244.156-201.511" transform="translate(-2773.891 77.866)" fill="none" stroke="#7f5af0" stroke-width="1"/>
    <path id="Path_73" data-name="Path 73" d="M3815.6,814.156s173.4,38.4,370.61-41.146,315.158-241.39,315.158-241.39" transform="translate(-2773.891 91.689)" fill="none" stroke="#7f5af0" stroke-width="1"/>
    <path id="Path_74" data-name="Path 74" d="M3815.6,814.156s173.4,38.4,370.61-41.146,315.158-241.39,315.158-241.39" transform="translate(-2773.891 105.512)" fill="none" stroke="#7f5af0" stroke-width="1"/>
    <path id="Path_75" data-name="Path 75" d="M3815.6,814.156s173.4,38.4,370.61-41.146,315.158-241.39,315.158-241.39" transform="translate(-2773.891 119.336)" fill="none" stroke="#7f5af0" stroke-width="1"/>
    <path id="Path_76" data-name="Path 76" d="M3815.6,814.156s173.4,38.4,370.61-41.146,315.158-241.39,315.158-241.39" transform="translate(-2773.891 133.159)" fill="none" stroke="#7f5af0" stroke-width="1"/>
    <path id="Path_77" data-name="Path 77" d="M3815.6,814.156s173.4,38.4,370.61-41.146,315.158-241.39,315.158-241.39" transform="translate(-2773.891 146.982)" fill="none" stroke="#7f5af0" stroke-width="1"/>
    <path id="Path_78" data-name="Path 78" d="M3815.6,814.156s173.4,38.4,370.61-41.146,315.158-241.39,315.158-241.39" transform="translate(-2773.891 160.805)" fill="none" stroke="#7f5af0" stroke-width="1"/>
    <path id="Path_79" data-name="Path 79" d="M3815.6,814.156s173.4,38.4,370.61-41.146,315.158-241.39,315.158-241.39" transform="translate(-2773.891 174.628)" fill="none" stroke="#7f5af0" stroke-width="1"/>
    <path id="Path_80" data-name="Path 80" d="M3815.6,814.156s173.4,38.4,370.61-41.146,315.158-241.39,315.158-241.39" transform="translate(-2773.891 188.452)" fill="none" stroke="#7f5af0" stroke-width="1"/>
    <path id="Path_81" data-name="Path 81" d="M3815.6,814.156s173.4,38.4,370.61-41.146,315.158-241.39,315.158-241.39" transform="translate(-2773.891 202.275)" fill="none" stroke="#7f5af0" stroke-width="1"/>
    <path id="Path_82" data-name="Path 82" d="M3815.6,814.156s173.4,38.4,370.61-41.146,315.158-241.39,315.158-241.39" transform="translate(-2773.891 216.098)" fill="none" stroke="#7f5af0" stroke-width="1"/>
    <path id="Path_83" data-name="Path 83" d="M3815.6,814.156s173.4,38.4,370.61-41.146,315.158-241.39,315.158-241.39" transform="translate(-2773.891 229.921)" fill="none" stroke="#7f5af0" stroke-width="1"/>
    <path id="Path_84" data-name="Path 84" d="M3815.6,814.156s173.4,38.4,370.61-41.146,315.158-241.39,315.158-241.39" transform="translate(-2773.891 243.744)" fill="none" stroke="#7f5af0" stroke-width="1"/>
    <path id="Path_85" data-name="Path 85" d="M3815.6,814.156s173.4,38.4,370.61-41.146,315.158-241.39,315.158-241.39" transform="translate(-2773.891 257.568)" fill="none" stroke="#7f5af0" stroke-width="1"/>
    <path id="Path_86" data-name="Path 86" d="M3815.6,814.156s173.4,38.4,370.61-41.146,315.158-241.39,315.158-241.39" transform="translate(-2773.891 271.391)" fill="none" stroke="#7f5af0" stroke-width="1"/>
    <path id="Path_87" data-name="Path 87" d="M3815.6,814.156s173.4,38.4,370.61-41.146,315.158-241.39,315.158-241.39" transform="translate(-2773.891 285.214)" fill="none" stroke="#7f5af0" stroke-width="1"/>
    <path id="Path_88" data-name="Path 88" d="M3815.6,814.156s173.4,38.4,370.61-41.146,315.158-241.39,315.158-241.39" transform="translate(-2773.891 299.037)" fill="none" stroke="#7f5af0" stroke-width="1"/>
    <path id="Path_89" data-name="Path 89" d="M3815.6,814.156s173.4,38.4,370.61-41.146,315.158-241.39,315.158-241.39" transform="translate(-2773.891 312.861)" fill="none" stroke="#7f5af0" stroke-width="1"/>
    <path id="Path_90" data-name="Path 90" d="M3815.6,814.156s173.4,38.4,370.61-41.146,315.158-241.39,315.158-241.39" transform="translate(-2773.891 326.684)" fill="none" stroke="#7f5af0" stroke-width="1"/>
    <path id="Path_91" data-name="Path 91" d="M3815.6,814.156s173.4,38.4,370.61-41.146,315.158-241.39,315.158-241.39" transform="translate(-2773.891 340.507)" fill="none" stroke="#7f5af0" stroke-width="1"/>
    <path id="Path_92" data-name="Path 92" d="M3815.6,814.156s173.4,38.4,370.61-41.146,315.158-241.39,315.158-241.39" transform="translate(-2773.891 354.33)" fill="none" stroke="#7f5af0" stroke-width="1"/>
    <path id="Path_93" data-name="Path 93" d="M3815.6,814.156s173.4,38.4,370.61-41.146,315.158-241.39,315.158-241.39" transform="translate(-2773.891 368.153)" fill="none" stroke="#7f5af0" stroke-width="1"/>
  </g>
</svg>
